<?xml version="1.0" encoding="iso-8859-1"?>
<!-- Uploaded to: SVG Repo, www.svgrepo.com, Generator: SVG Repo Mixer Tools -->
<svg version="1.1" id="Layer_1" xmlns="http://www.w3.org/2000/svg" xmlns:xlink="http://www.w3.org/1999/xlink" 
	 viewBox="0 0 496.2 496.2" xml:space="preserve">
<path style="fill:#FABC3D;" d="M0,248.1C0,111.1,111.1,0,248.1,0s248.1,111.1,248.1,248.1S385.1,496.2,248.1,496.2S0,385.1,0,248.1z
	"/>
<path style="fill:#F5F5F5;" d="M240.4,40.9c-10.3,10.3-20.7,20.7-31,31c-6.6,6.5-1.7,18.3,7.5,18.3c5.2,0,10.3,0,15.5,0
	c-0.3,1.3-0.5,2.7-0.5,4.2c0,9.9,0,19.8,0,29.7c0,20.8,32.2,21,32.2,0.2c0-9.9,0-19.8,0-29.7c0-1.6-0.2-3-0.6-4.4
	c4.8,0,9.5,0,14.3,0c0.7,0.1,1.3,0,2,0c4.6-0.3,7.6-3.1,8.9-6.5c1.7-3.4,1.6-7.5-1.5-11.1c-0.4-0.6-0.9-1.1-1.5-1.6
	c-10-10-20.1-20.1-30.1-30.1C251.5,36.7,244.6,36.8,240.4,40.9z"/>
<path style="fill:#67AEBA;" d="M411.9,156.6H84.3c-1.9,0-3.4,1.5-3.4,3.4v57.4c0,1.9,1.5,3.4,3.4,3.4H412c1.9,0,3.4-1.5,3.4-3.4V160
	C415.4,158.2,413.8,156.6,411.9,156.6z"/>
<rect x="101.6" y="173.5" style="fill:#4B868C;" width="293" height="30.5"/>
<path style="fill:#1B7A9A;" d="M137.4,173.5V204v196.1c0,11,8.9,19.9,19.9,19.9h181.6c11,0,19.9-8.9,19.9-19.9V204v-30.5H137.4z"/>
<path style="fill:#176F84;" d="M137.5,173.5v27.2h221.3v-27.2H137.5z"/>
<path style="fill:#126275;" d="M137.5,173.5v9.9h221.3v-9.9H137.5z"/>
<g>
	<path style="fill:#2992AD;" d="M336.9,247.5c0,0-2.1-3.3-4.9-5c-2.9-1.7-5.3-1.7-5.3-1.7s-1.2,2.1-1.2,4.2c0,2.1,2.1,7.8,4.9,7.8
		C333.2,252.9,336.9,247.5,336.9,247.5z"/>
	<path style="fill:#2992AD;" d="M293.4,359.7c-0.4,2.5,2,6.2,2,6.2c-2,7.1-36.6,17.5-36.6,17.5c62.2-10.4,88.8-52,100-82.3v-17.8
		c-0.4,0.2-0.7,0.3-0.9,0.2c-2-0.8-4.5-3.7-3.3-6.2s1.6-10.4-0.8-14.1c-2.5-3.7-9.5-5.4-12.3-5c-2.9,0.4-2.1,11.6-2.1,12.9
		c0,1.2,4.9-0.4,6.2-2.5c1.2-2.1,4.1-0.8,4.5,2.1s-3.3,4.2-4.5,5.8c-1.2,1.7-9.9,1.2-9.9,1.2c-2.9-1.2,1.6-10,0.4-13.3
		s-11.9-8.3-12.9-10.1c-0.9-1.8-7.5-0.4-10.6,0.2c-3,0.6-0.4-11.6-2.9-14.1s-10.7,0-13.2,1.2c-2.5,1.3-0.8,8.7-0.8,11.6
		s6.2,5.8,8.2,6.6c2.1,0.8,6.2,6.2,7.4,10c1.2,3.7-4.5,2.1-6.6,2.5s-1.2,7.9-3.3,8.3c-2.1,0.4,1.2,5,3.3,7.5c2,2.5,2.9,4.2-0.4,6.6
		c-3.3,2.5,0.4,8.7,0.4,13.3c0,4.6,4.9,10,1.2,12.5c-3.7,2.5-10.3-5-10.3-5l-2.1,2.3c-1.4-8.4-3.5-25.6,0.4-33c0,0,8.6-6.6,1.2-25.3
		c0,0-19.7-32.8-39.5-33.2c0,0-39-9.1-44.4,25.3c0,0,11.9,36.2-2.1,40.7c0,0-17.3,1.2-21,4.6c0,0-7.9,5.4-12.7,5
		c0,0-16-3.7-28.4,1.2c0,0-5.7,1.8-10,2.6v9.9c5.1,10.1,15.6,25.5,34.7,32c0,0,20.6,5.8,25.9,6.2c0,0,23.8,8.3,31.2,10.4
		c0,0,22.2,7.5,19.3-5c0,0,8.2-8.7,14.4-15c3.1-3.1,10.6-7.8,17.6-12l-16.8,18.3c-7.4,9.1,3.7,14.1,7.4,15c3.7,0.8,9.5-0.4,13.1-0.8
		c3.7-0.4,4.5-0.8,5.4-7.9s7.8-13.7,9.9-12.9C301.6,344.7,293.8,357.2,293.4,359.7z"/>
	<path style="fill:#2992AD;" d="M357.5,220.1c-0.8,2.5-8.2-8.7-11.5-12.9s-6.2,2.9-4.5,5s5.7,10.4,7,15.4c0.8,3.4,6.8,9.2,10.4,12.5
		v-31.2c-0.4-1.8-0.7-3.9-1-5.3h-9C352.4,208.8,358.2,217.9,357.5,220.1z"/>
</g>
<path style="fill:#9C9CA0;" d="M194.8,187.2h-1.5v-9.5h-4.9l0.1,0.1c0.1,0.1,0.1,0.1,0.2,0.2s0.2,0.2,0.2,0.2s0.1,0.1,0.1,0.2
	c0.2,0.6,0.3,1,0.3,1.3v5.1c0,0.3-0.1,0.5-0.2,0.8s-0.3,0.5-0.6,0.8s-0.5,0.4-0.7,0.6s-0.5,0.2-0.7,0.2h-9c-0.4,0-0.7-0.1-1-0.2
	s-0.6-0.3-0.8-0.6s-0.4-0.5-0.5-0.8s-0.2-0.6-0.2-1v-7.4c0-0.3,0.1-0.6,0.3-0.9s0.4-0.5,0.6-0.8s0.6-0.4,0.9-0.5s0.6-0.2,0.9-0.2h3
	v2.9h-2.7c-0.6,0-1,0.1-1.3,0.3s-0.4,0.5-0.4,0.8v4c0,0.5,0.1,0.9,0.4,1.1s0.7,0.4,1.4,0.4h7.8c0.5,0,0.8-0.1,1.1-0.3
	s0.4-0.5,0.4-0.8v-3.5c0-0.4-0.2-0.7-0.5-1.1s-0.9-0.6-1.5-0.8c-0.3-0.1-0.5-1.1-0.5-3h9.4v12.4H194.8z"/>
<path style="fill:#BFBFC1;" d="M192.1,205h-2.2v-2.9h1.9c0.5,0,0.9-0.1,1.2-0.3s0.5-0.5,0.5-0.9V197c0-0.2,0-0.4-0.1-0.6
	s-0.2-0.3-0.3-0.5s-0.3-0.2-0.5-0.3s-0.5-0.1-0.8-0.1c-0.2,0-0.5,0-0.8,0s-0.6,0-0.9,0s-0.6,0-0.8,0.1s-0.3,0.1-0.3,0.1v6.9
	c0,0.3-0.1,0.5-0.2,0.8s-0.4,0.5-0.6,0.8s-0.6,0.4-0.9,0.6s-0.6,0.2-0.9,0.2h-8.1c-0.4,0-0.7-0.1-1-0.2s-0.6-0.3-0.8-0.6
	s-0.4-0.5-0.5-0.8s-0.2-0.6-0.2-1V195c0-0.3,0.1-0.6,0.2-0.9s0.3-0.5,0.5-0.8s0.5-0.4,0.8-0.5s0.7-0.2,1.1-0.2h13.9
	c0.4,0,0.7,0.1,1,0.2s0.6,0.3,0.8,0.6s0.4,0.5,0.5,0.8s0.2,0.6,0.2,1v7.4c0,0.3-0.1,0.5-0.2,0.8s-0.4,0.5-0.6,0.8s-0.5,0.4-0.9,0.6
	S192.5,205,192.1,205z M186,202.1c0.5,0,0.9-0.1,1.2-0.3s0.5-0.5,0.5-0.9V197c0-0.2,0-0.4-0.1-0.6s-0.2-0.3-0.3-0.5
	s-0.3-0.2-0.6-0.3s-0.5-0.1-0.9-0.1h-7.3c-0.6,0-1,0.1-1.3,0.3s-0.4,0.5-0.4,0.8v4c0,0.5,0.1,0.9,0.4,1.1s0.7,0.4,1.4,0.4H186z"/>
<g>
	<path style="fill:#CDCDCE;" d="M194,222.9c-0.2,0-0.4,0-0.6,0s-0.3,0-0.5-0.1l-17.3-4.9v-3.3l16.9,6.1c0.2,0,0.3,0.1,0.4,0.1
		s0.2,0,0.3,0c0.1-0.1,0.2-0.3,0.2-0.8v-5.6c0-0.2,0-0.4-0.1-0.5s-0.2-0.3-0.3-0.4s-0.2-0.2-0.4-0.2s-0.3-0.1-0.4-0.1h-3.7v-2.9h3.4
		c0.4,0,0.8,0.1,1.2,0.2s0.6,0.4,0.9,0.6s0.4,0.5,0.5,0.8s0.2,0.6,0.2,0.9v8.8C194.8,222.4,194.6,222.8,194,222.9z"/>
	<path style="fill:#CDCDCE;" d="M192.9,239.5h-3.5c-0.3,0-0.5-0.1-0.8-0.2s-0.6-0.4-0.8-0.8c0,0.1,0,0.3-0.1,0.4s-0.2,0.3-0.3,0.5
		s-0.3,0.3-0.4,0.5s-0.3,0.3-0.5,0.4c-0.5,0.3-1.2,0.4-2,0.4h-6.1c-0.3,0-0.7-0.1-1-0.2s-0.6-0.3-0.8-0.5s-0.4-0.5-0.6-0.8
		s-0.2-0.7-0.2-1.1v-7.4c0-0.3,0.1-0.6,0.2-0.9s0.3-0.5,0.6-0.8s0.5-0.4,0.9-0.5s0.7-0.2,1-0.2h5.8c0.4,0,0.7,0,1.1,0.1
		s0.6,0.1,0.9,0.3s0.5,0.3,0.7,0.5s0.4,0.5,0.5,0.9c0.1,0.3,0.2,0.5,0.2,0.5s0,0,0.1-0.1s0.1-0.1,0.2-0.2s0.1-0.2,0.2-0.3
		s0.2-0.2,0.3-0.2c0.6-0.2,0.9-0.3,1-0.3h3.5c0.2,0,0.4,0,0.7,0.1s0.4,0.2,0.6,0.3s0.3,0.3,0.5,0.6s0.2,0.5,0.2,0.9v6.3
		c0,0.3-0.1,0.5-0.2,0.8s-0.2,0.4-0.4,0.6s-0.4,0.3-0.6,0.4S193.1,239.5,192.9,239.5z M185.7,237.9c0.3,0,0.5,0,0.7-0.1
		s0.4-0.2,0.5-0.3s0.2-0.3,0.3-0.4s0.1-0.3,0.1-0.5v-3.9c0-0.5-0.1-0.8-0.3-1.1s-0.6-0.3-1.1-0.3h-7.2c-0.2,0-0.4,0-0.5,0.1
		s-0.3,0.1-0.5,0.2s-0.3,0.2-0.4,0.3s-0.1,0.3-0.1,0.5v3.9c0,0.4,0,0.7,0.1,0.9s0.1,0.4,0.3,0.5s0.3,0.2,0.4,0.2s0.4,0,0.6,0
		L185.7,237.9L185.7,237.9z M192.1,236.6c0.3,0,0.6,0,0.8-0.1s0.3-0.1,0.4-0.2s0.2-0.2,0.2-0.3s0-0.2,0-0.3v-2.2
		c0-0.4-0.1-0.7-0.3-0.9s-0.6-0.3-1.1-0.3h-2c-0.1,0-0.2,0-0.4,0s-0.3,0.1-0.5,0.1s-0.3,0.2-0.4,0.3s-0.2,0.4-0.2,0.6v2
		c0,0.2,0,0.4,0.1,0.5s0.1,0.3,0.2,0.3s0.3,0.1,0.5,0.2s0.5,0,0.8,0h1.9V236.6z"/>
	<path style="fill:#CDCDCE;" d="M192.3,269.1h-14c-0.3,0-0.7-0.1-1-0.2s-0.6-0.3-0.8-0.5s-0.4-0.5-0.6-0.8s-0.2-0.7-0.2-1.1v-7.4
		c0-0.3,0.1-0.6,0.2-0.9s0.3-0.5,0.6-0.8s0.5-0.4,0.9-0.5s0.7-0.2,1-0.2h1.8v2.9h-1.6c-0.2,0-0.4,0-0.5,0.1s-0.3,0.1-0.5,0.2
		s-0.3,0.2-0.4,0.3s-0.1,0.3-0.1,0.5v3.9c0,0.4,0,0.7,0.1,0.9s0.1,0.4,0.3,0.5s0.3,0.2,0.4,0.2s0.4,0,0.6,0h3.4
		c-0.1-0.1-0.2-0.2-0.3-0.2s-0.1-0.2-0.1-0.2s0-0.2,0-0.3v-5.8c0-0.4,0.1-0.8,0.2-1.2s0.3-0.7,0.6-0.9s0.6-0.5,1.1-0.6
		s1-0.2,1.6-0.2h7.2c0.4,0,0.7,0.1,1,0.2s0.6,0.3,0.9,0.5s0.4,0.5,0.6,0.8s0.2,0.6,0.2,0.9v7.4c0,0.4-0.1,0.8-0.2,1.1
		s-0.3,0.6-0.6,0.8s-0.5,0.4-0.8,0.5S192.6,269.1,192.3,269.1z M192,266.2c0.2,0,0.4,0,0.6,0s0.3-0.1,0.5-0.2s0.2-0.3,0.3-0.5
		s0.1-0.5,0.1-0.9v-3.9c0-0.1,0-0.3-0.1-0.4s-0.2-0.2-0.4-0.4s-0.3-0.2-0.5-0.2s-0.4-0.1-0.6-0.1h-7.5c-0.5,0-0.8,0.1-1.1,0.4
		s-0.3,0.6-0.3,1.1v3.9c0,0.5,0.1,0.8,0.4,1s0.7,0.3,1.2,0.3h7.4V266.2z"/>
	<path style="fill:#CDCDCE;" d="M192.3,287h-14c-0.3,0-0.7-0.1-1-0.2s-0.6-0.3-0.8-0.5s-0.4-0.5-0.6-0.8s-0.2-0.7-0.2-1.1V277
		c0-0.3,0.1-0.6,0.2-0.9s0.3-0.5,0.6-0.8s0.5-0.4,0.9-0.5s0.7-0.2,1-0.2h13.7c0.4,0,0.7,0.1,1,0.2s0.6,0.3,0.9,0.5s0.4,0.5,0.6,0.8
		s0.2,0.6,0.2,0.9v7.4c0,0.4-0.1,0.8-0.2,1.1s-0.3,0.6-0.6,0.8s-0.5,0.4-0.8,0.5S192.6,287,192.3,287z M192,284.1c0.2,0,0.4,0,0.6,0
		s0.3-0.1,0.5-0.2s0.2-0.3,0.3-0.5s0.1-0.5,0.1-0.9v-3.9c0-0.1,0-0.3-0.1-0.4s-0.2-0.2-0.4-0.4s-0.3-0.2-0.5-0.2s-0.4-0.1-0.6-0.1
		h-13.3c-0.2,0-0.4,0-0.5,0.1s-0.3,0.1-0.5,0.2s-0.3,0.2-0.4,0.3s-0.1,0.3-0.1,0.5v3.9c0,0.4,0,0.7,0.1,0.9s0.1,0.4,0.3,0.5
		s0.3,0.2,0.4,0.2s0.4,0,0.6,0H192z"/>
	<path style="fill:#CDCDCE;" d="M194.8,301.5h-19.2v-2.9h14.7v-2.9h1c0.1,0.4,0.3,0.9,0.4,1.3s0.4,0.9,0.6,1.2s0.5,0.7,0.8,1
		s0.7,0.5,1.1,0.6c0.3,0.1,0.5,0.2,0.5,0.2v1.5H194.8z"/>
	<path style="fill:#CDCDCE;" d="M192.3,322.7h-3.2c-0.4,0-0.7,0-0.9-0.1s-0.5-0.2-0.6-0.4s-0.4-0.4-0.5-0.6s-0.3-0.5-0.5-0.8
		l-4.2-6.8c-0.1-0.2-0.1-0.3-0.2-0.4s-0.2-0.2-0.3-0.2s-0.3-0.1-0.5-0.1s-0.5,0-0.9,0h-3.4v9.5h-1.4v-12.4h5.2c0.2,0,0.4,0,0.5,0.1
		s0.3,0.1,0.5,0.2s0.3,0.2,0.3,0.3s0.2,0.2,0.2,0.3l4.7,7.7c0.1,0.3,0.3,0.5,0.6,0.6s0.6,0.2,1,0.2h3c0.3,0,0.5,0,0.8-0.1
		s0.4-0.1,0.5-0.2s0.2-0.3,0.3-0.5s0.1-0.5,0.1-0.9v-3.9c0-0.1,0-0.3-0.1-0.4s-0.2-0.2-0.3-0.4s-0.3-0.2-0.5-0.2s-0.4-0.1-0.6-0.1
		h-4.3v-2.9h4.6c0.3,0,0.6,0.1,0.9,0.2s0.6,0.4,0.9,0.6s0.5,0.5,0.7,0.8s0.3,0.5,0.3,0.8v7.4c0,0.3-0.1,0.7-0.2,1s-0.3,0.6-0.5,0.8
		s-0.5,0.4-0.8,0.6S192.6,322.7,192.3,322.7z"/>
	<path style="fill:#CDCDCE;" d="M192.3,351.1h-4.4c-0.6,0-1-0.1-1.3-0.3s-0.6-0.5-0.7-0.9c-0.1-0.2-0.1-0.3-0.2-0.3
		c-0.4,0.7-0.7,1.1-0.9,1.2c-0.5,0.2-1.3,0.4-2.2,0.4h-4.3c-0.4,0-0.7-0.1-1-0.2s-0.6-0.3-0.8-0.6s-0.4-0.5-0.5-0.8s-0.2-0.6-0.2-1
		v-7.5c0-0.2,0-0.3,0-0.4s0.1-0.2,0.1-0.3s0.2-0.2,0.3-0.3s0.3-0.3,0.4-0.4c0.6-0.6,1.2-0.8,1.8-0.8h4.6v2.9h-4.3
		c-0.3,0-0.5,0-0.7,0.1s-0.3,0.2-0.5,0.3s-0.2,0.2-0.3,0.4s-0.1,0.3-0.1,0.4v3.9c0,0.4,0,0.7,0.1,0.9s0.2,0.4,0.3,0.5
		s0.3,0.2,0.5,0.2s0.5,0.1,0.8,0.1h4.5c0.2,0,0.5,0,0.7-0.1s0.4-0.1,0.5-0.2s0.3-0.2,0.3-0.3s0.1-0.2,0.1-0.3v-4.8h1.7v4.2
		c0,0.3,0,0.6,0.1,0.8s0.1,0.3,0.2,0.4s0.2,0.2,0.3,0.2s0.3,0,0.5,0h4.1c0.3,0,0.6,0,0.8-0.1s0.4-0.1,0.5-0.2s0.2-0.3,0.3-0.5
		s0.1-0.5,0.1-0.9v-3.9c0-0.1,0-0.3-0.1-0.4s-0.2-0.2-0.3-0.4s-0.3-0.2-0.5-0.3s-0.4-0.1-0.7-0.1h-3.3v-2.9h3.5
		c0.3,0,0.6,0.1,0.9,0.2s0.6,0.4,0.9,0.6s0.5,0.5,0.7,0.8s0.3,0.5,0.3,0.8v7.4c0,0.3-0.1,0.7-0.2,1s-0.3,0.6-0.5,0.8
		s-0.5,0.4-0.8,0.6S192.6,351.1,192.3,351.1z"/>
	<path style="fill:#CDCDCE;" d="M194.8,367.6h-12.7v1.7h-1.6v-1.7h-4.8v-2.9h4.8v-8.6h2.8l11.6,7.9v3.6H194.8z M193.2,364.8
		l-11.1-7.4v7.4H193.2z"/>
	<path style="fill:#CDCDCE;" d="M194.8,386.8h-1.5v-9.5h-4.9l0.1,0.1c0.1,0.1,0.1,0.1,0.2,0.2s0.2,0.2,0.2,0.2s0.1,0.1,0.1,0.2
		c0.2,0.6,0.3,1,0.3,1.3v5.1c0,0.3-0.1,0.5-0.2,0.8s-0.3,0.5-0.6,0.8s-0.5,0.4-0.7,0.6s-0.5,0.2-0.7,0.2h-9c-0.4,0-0.7-0.1-1-0.2
		s-0.6-0.3-0.8-0.6s-0.4-0.5-0.5-0.8s-0.2-0.6-0.2-1v-7.4c0-0.3,0.1-0.6,0.3-0.9s0.4-0.5,0.6-0.8s0.6-0.4,0.9-0.5s0.6-0.2,0.9-0.2h3
		v2.9h-2.7c-0.6,0-1,0.1-1.3,0.3s-0.4,0.5-0.4,0.8v4c0,0.5,0.1,0.9,0.4,1.1s0.7,0.4,1.4,0.4h7.8c0.5,0,0.8-0.1,1.1-0.3
		s0.4-0.5,0.4-0.8v-3.5c0-0.4-0.2-0.7-0.5-1.1s-0.9-0.6-1.5-0.8c-0.3-0.1-0.5-1.1-0.5-3h9.4v12.4H194.8z"/>
	<path style="fill:#CDCDCE;" d="M192.1,404.6h-2.2v-2.9h1.9c0.5,0,0.9-0.1,1.2-0.3s0.5-0.5,0.5-0.9v-3.9c0-0.2,0-0.4-0.1-0.6
		s-0.2-0.3-0.3-0.5s-0.3-0.2-0.5-0.3s-0.5-0.1-0.8-0.1c-0.2,0-0.5,0-0.8,0s-0.6,0-0.9,0s-0.6,0-0.8,0.1s-0.3,0.1-0.3,0.1v6.9
		c0,0.3-0.1,0.5-0.2,0.8s-0.4,0.5-0.6,0.8s-0.6,0.4-0.9,0.6s-0.6,0.2-0.9,0.2h-8.1c-0.4,0-0.7-0.1-1-0.2s-0.6-0.3-0.8-0.6
		s-0.4-0.5-0.5-0.8s-0.2-0.6-0.2-1v-7.4c0-0.3,0.1-0.6,0.2-0.9s0.3-0.5,0.5-0.8s0.5-0.4,0.8-0.5s0.7-0.2,1.1-0.2h13.9
		c0.4,0,0.7,0.1,1,0.2s0.6,0.3,0.8,0.6s0.4,0.5,0.5,0.8s0.2,0.6,0.2,1v7.4c0,0.3-0.1,0.5-0.2,0.8s-0.4,0.5-0.6,0.8s-0.5,0.4-0.9,0.6
		S192.5,404.6,192.1,404.6z M186,401.8c0.5,0,0.9-0.1,1.2-0.3s0.5-0.5,0.5-0.9v-3.9c0-0.2,0-0.4-0.1-0.6s-0.2-0.3-0.3-0.5
		s-0.3-0.2-0.6-0.3s-0.5-0.1-0.9-0.1h-7.3c-0.6,0-1,0.1-1.3,0.3s-0.4,0.5-0.4,0.8v4c0,0.5,0.1,0.9,0.4,1.1s0.7,0.4,1.4,0.4H186z"/>
</g>
</svg>